<svg width="783" height="128" viewBox="0 0 783 128" fill="none" xmlns="http://www.w3.org/2000/svg">
<g filter="url(#filter0_i)">
<rect width="783" height="128" fill="#5F00A9"/>
</g>
<path d="M316.328 42.528C318.931 45.088 320.445 48.3093 320.872 52.192C321.341 56.0747 320.893 59.7867 319.528 63.328C318.163 66.8267 316.072 69.9627 313.256 72.736C310.483 75.5093 307.411 77.152 304.04 77.664C303.955 78.5173 303.912 79.1573 303.912 79.584C303.912 79.9253 303.891 80.416 303.848 81.056C303.592 84.9387 303.763 87.52 304.36 88.8C305.213 90.5493 307.048 91.3173 309.864 91.104C307.56 91.9573 305.405 92.128 303.4 91.616C301.437 91.1467 299.795 90.0587 298.472 88.352C297.192 86.6453 296.573 84.6827 296.616 82.464C296.616 80.8427 296.723 79.0293 296.936 77.024C296.211 76.768 295.272 76.3413 294.12 75.744C293.779 75.5307 293.16 75.1893 292.264 74.72C291.411 74.2507 290.792 73.9307 290.408 73.76C290.067 73.5467 289.533 73.2267 288.808 72.8C288.083 72.3307 287.464 71.9253 286.952 71.584C286.483 71.2 285.885 70.752 285.16 70.24C284.477 69.6853 283.773 69.088 283.048 68.448C282.323 67.808 281.555 67.0827 280.744 66.272C279.165 64.7787 277.992 62.9867 277.224 60.896C276.499 58.8053 276.157 56.6507 276.2 54.432C276.285 52.2133 276.669 49.9733 277.352 47.712C278.035 45.408 278.973 43.2533 280.168 41.248C281.405 39.2 282.856 37.3867 284.52 35.808C286.184 34.1867 287.933 32.928 289.768 32.032C291.645 31.0933 293.651 30.624 295.784 30.624C297.917 30.624 300.008 31.1787 302.056 32.288C307.603 35.2747 312.36 38.688 316.328 42.528ZM306.344 39.392C303.016 37.3867 299.88 36.96 296.936 38.112C294.035 39.2213 291.539 41.312 289.448 44.384C287.357 47.456 286.035 50.848 285.48 54.56C288.509 53.536 290.493 53.0453 291.432 53.088C292.115 53.1307 293.117 53.6 294.44 54.496C295.763 55.392 296.979 56.3093 298.088 57.248C299.197 58.1867 300.392 59.2533 301.672 60.448C302.995 61.6 303.763 62.2613 303.976 62.432C304.744 63.072 305.085 64.8 305 67.616C307.517 65.2693 309.416 62.2827 310.696 58.656C311.976 55.0293 312.275 51.4027 311.592 47.776C310.952 44.1067 309.203 41.312 306.344 39.392ZM295.144 59.68C294.376 59.2107 293.459 58.912 292.392 58.784C291.368 58.656 290.195 58.848 288.872 59.36C287.592 59.872 286.547 60.7893 285.736 62.112C286.675 65.44 288.488 67.8933 291.176 69.472C293.224 70.7093 295.315 71.264 297.448 71.136C297.661 68.0213 297.619 65.5467 297.32 63.712C297.064 61.8347 296.339 60.4907 295.144 59.68ZM349.911 45.472L357.911 47.264V77.92L349.911 76.128V72.928C346.498 76.4267 343.34 78.0693 340.439 77.856C339.074 77.7707 336.642 76.192 333.143 73.12C329.644 70.048 327.788 67.9147 327.575 66.72C327.404 65.6107 327.319 58.528 327.319 45.472L335.255 47.264C335.042 61.9413 335.148 69.728 335.575 70.624C336.428 71.8187 337.708 72.2027 339.415 71.776C341.164 71.3493 343.084 70.1333 345.175 68.128C347.308 66.1227 348.887 63.9253 349.911 61.536V45.472ZM370.834 41.504C368.658 40.48 367.036 38.9227 365.97 36.832C366.055 36.1493 366.695 35.2747 367.89 34.208C369.084 33.1413 370.044 32.5227 370.77 32.352C372.946 33.3333 374.546 34.848 375.57 36.896C374.844 38.7307 373.266 40.2667 370.834 41.504ZM374.674 47.2V77.856L366.674 76.064V45.408L374.674 47.2ZM408.233 50.144L397.353 63.968L405.417 67.808C407.636 68.9173 409.001 70.56 409.513 72.736C410.025 74.8693 409.769 77.0667 408.745 79.328C407.721 81.632 406.334 83.808 404.585 85.856C402.878 87.904 400.852 89.504 398.505 90.656C396.158 91.808 393.961 92.2133 391.913 91.872C390.59 91.6587 388.777 90.8053 386.473 89.312C384.169 87.8613 382.142 86.2613 380.393 84.512L381.865 82.976C383.273 83.9147 384.468 84.5973 385.449 85.024C388.009 85.92 390.292 86.0907 392.297 85.536C394.345 85.024 396.052 83.9573 397.417 82.336C398.782 80.7573 399.806 79.0507 400.489 77.216C401.214 75.424 401.513 73.696 401.385 72.032C401.3 70.368 400.766 69.1947 399.785 68.512C398.206 67.4453 394.622 65.8027 389.033 63.584H388.969L388.521 63.392L398.889 50.08H382.185L380.265 45.408H406.313L408.233 50.08H407.913L408.233 50.144ZM439.546 50.144L428.666 63.968L436.73 67.808C438.948 68.9173 440.314 70.56 440.826 72.736C441.338 74.8693 441.082 77.0667 440.058 79.328C439.034 81.632 437.647 83.808 435.898 85.856C434.191 87.904 432.164 89.504 429.818 90.656C427.471 91.808 425.274 92.2133 423.226 91.872C421.903 91.6587 420.09 90.8053 417.786 89.312C415.482 87.8613 413.455 86.2613 411.706 84.512L413.178 82.976C414.586 83.9147 415.78 84.5973 416.762 85.024C419.322 85.92 421.604 86.0907 423.61 85.536C425.658 85.024 427.364 83.9573 428.73 82.336C430.095 80.7573 431.119 79.0507 431.802 77.216C432.527 75.424 432.826 73.696 432.698 72.032C432.612 70.368 432.079 69.1947 431.098 68.512C429.519 67.4453 425.935 65.8027 420.345 63.584H420.282L419.834 63.392L430.202 50.08H413.498L411.578 45.408H437.626L439.546 50.08H439.226L439.546 50.144ZM452.81 63.264L467.338 53.344C464.266 51.3813 461.642 50.656 459.466 51.168C457.333 51.68 455.69 53.024 454.538 55.2C453.386 57.3333 452.81 60.0213 452.81 63.264ZM454.282 69.408C455.477 70.8587 456.821 71.7547 458.314 72.096C459.807 72.4373 461.365 72.2453 462.986 71.52C464.65 70.752 466.037 70.0053 467.146 69.28C468.255 68.512 469.557 67.5093 471.05 66.272L472.33 67.552C473.141 68.448 473.951 69.344 474.762 70.24L476.042 71.52C472.33 74.2507 469.194 76.064 466.634 76.96C464.074 77.8987 461.535 77.8987 459.018 76.96C455.349 75.552 451.893 73.0773 448.65 69.536C446.73 67.4027 445.621 64.8853 445.322 61.984C445.023 59.04 445.386 56.3093 446.41 53.792C447.477 51.2747 449.098 49.1413 451.274 47.392C453.493 45.6 455.903 44.704 458.506 44.704C460.213 44.704 462.73 45.8133 466.058 48.032C469.429 50.208 472.223 52.3413 474.442 54.432C474.399 54.56 472.693 55.8827 469.322 58.4C465.994 60.8747 462.645 63.328 459.274 65.76L454.282 69.408ZM489.721 47.2V51.936C492.836 47.0293 495.481 44.576 497.657 44.576C498.724 44.576 500.516 45.1307 503.033 46.24C505.55 47.3067 507.662 48.416 509.369 49.568L504.953 55.968C502.308 54.0053 500.004 52.9387 498.041 52.768C496.121 52.5547 494.585 52.9387 493.433 53.92C492.281 54.8587 491.044 56.3947 489.721 58.528V77.856L481.721 76.064V45.408L489.721 47.2Z" fill="white"/>
<defs>
<filter id="filter0_i" x="0" y="0" width="783" height="132" filterUnits="userSpaceOnUse" color-interpolation-filters="sRGB">
<feFlood flood-opacity="0" result="BackgroundImageFix"/>
<feBlend mode="normal" in="SourceGraphic" in2="BackgroundImageFix" result="shape"/>
<feColorMatrix in="SourceAlpha" type="matrix" values="0 0 0 0 0 0 0 0 0 0 0 0 0 0 0 0 0 0 127 0" result="hardAlpha"/>
<feOffset dy="4"/>
<feGaussianBlur stdDeviation="2"/>
<feComposite in2="hardAlpha" operator="arithmetic" k2="-1" k3="1"/>
<feColorMatrix type="matrix" values="0 0 0 0 0 0 0 0 0 0 0 0 0 0 0 0 0 0 0.25 0"/>
<feBlend mode="normal" in2="shape" result="effect1_innerShadow"/>
</filter>
</defs>
</svg>
